<svg width="38" height="44" viewBox="0 0 38 44" fill="none" xmlns="http://www.w3.org/2000/svg">
<path fill-rule="evenodd" clip-rule="evenodd" d="M12.4064 1.39413C7.35859 3.15583 3.00971 6.49161 0 10.9104L4.5729 14.0251C6.91554 10.5857 10.3005 7.98923 14.2296 6.618C18.1586 5.24677 22.4241 5.1732 26.398 6.40812L28.0399 1.12449C22.9343 -0.462081 17.4543 -0.367559 12.4064 1.39413ZM3.53949 26.5952C3.53949 17.0757 11.2463 9.36894 20.7658 9.36894C30.2739 9.36894 37.9921 17.0871 37.9921 26.5952C37.9921 36.1033 30.2853 43.8215 20.7658 43.8215C11.2463 43.8215 3.53949 36.1147 3.53949 26.5952ZM13.629 26.5952C13.629 30.5284 16.8212 33.7206 20.7658 33.7206C24.699 33.7206 27.8912 30.5398 27.8912 26.5952C27.8912 22.6506 24.7104 19.4585 20.7658 19.4585C16.8212 19.4585 13.629 22.662 13.629 26.5952Z" fill="url(#paint0_linear_543_572)"/>
<defs>
<linearGradient id="paint0_linear_543_572" x1="2.84124" y1="10.5131" x2="44.5297" y2="32.6056" gradientUnits="userSpaceOnUse">
<stop stop-color="#00DEFC"/>
<stop offset="0.19" stop-color="#07D2FC"/>
<stop offset="0.53" stop-color="#1BB4FD"/>
<stop offset="0.98" stop-color="#3B84FE"/>
<stop offset="1" stop-color="#3D82FF"/>
</linearGradient>
</defs>
</svg>
