<svg width="153" height="177" viewBox="0 0 153 177" fill="none" xmlns="http://www.w3.org/2000/svg">
<path opacity="0.8" fill-rule="evenodd" clip-rule="evenodd" d="M49.9628 5.61441C29.6343 12.7091 12.1206 26.1428 0 43.9381L18.4159 56.4814C27.8501 42.6303 41.482 32.174 57.3049 26.6518C73.1277 21.1297 90.3055 20.8334 106.309 25.8066L112.922 4.52852C92.3606 -1.86087 70.2913 -1.48023 49.9628 5.61441ZM14.2519 107.104C14.2519 68.7669 45.2885 37.7303 83.6251 37.7303C121.916 37.7303 152.998 68.8128 152.998 107.104C152.998 145.394 121.962 176.477 83.6251 176.477C45.2885 176.477 14.2519 145.44 14.2519 107.104ZM54.8841 107.104C54.8841 122.943 67.7395 135.799 83.6251 135.799C99.4648 135.799 112.32 122.989 112.32 107.104C112.32 91.218 99.5107 78.3626 83.6251 78.3626C67.7395 78.3626 54.8841 91.2639 54.8841 107.104Z" fill="white" fill-opacity="0.1"/>
</svg>
